<svg width="127" height="20" viewBox="0 0 127 20" fill="none" xmlns="http://www.w3.org/2000/svg">
<path fill-rule="evenodd" clip-rule="evenodd" d="M14.334 0H5.665C2.26742 0 0 2.4326 0 5.916V14.084C0 17.5707 2.26137 20 5.665 20H14.333C17.7376 20 20 17.5707 20 14.084V5.916C20 2.42951 17.7378 0 14.334 0ZM5.665 1.5H14.334C16.8845 1.5 18.5 3.23497 18.5 5.916V14.084C18.5 16.7651 16.8844 18.5 14.333 18.5H5.665C3.11476 18.5 1.5 16.7653 1.5 14.084V5.916C1.5 3.23838 3.12034 1.5 5.665 1.5Z" fill="#8094FF"/>
<path d="M7.84659 5.80078L9.956 12.4315H10.0369L12.1506 5.80078H14.196L11.1875 14.5281H8.8097L5.79688 5.80078H7.84659Z" fill="#8094FF"/>
<path fill-rule="evenodd" clip-rule="evenodd" d="M43.334 0H34.665C31.2674 0 29 2.4326 29 5.916V14.084C29 17.5707 31.2614 20 34.665 20H43.333C46.7376 20 49 17.5707 49 14.084V5.916C49 2.42951 46.7378 0 43.334 0ZM34.665 1.5H43.334C45.8845 1.5 47.5 3.23497 47.5 5.916V14.084C47.5 16.7651 45.8844 18.5 43.333 18.5H34.665C32.1148 18.5 30.5 16.7653 30.5 14.084V5.916C30.5 3.23838 32.1203 1.5 34.665 1.5Z" fill="#F5A938"/>
<path d="M34.2969 5.80078H36.5724L38.9759 11.6644H39.0781L41.4815 5.80078H43.7571V14.5281H41.9673V8.8477H41.8949L39.6364 14.4854H38.4176L36.1591 8.8263H36.0866V14.5281H34.2969V5.80078Z" fill="#F5A938"/>
<path fill-rule="evenodd" clip-rule="evenodd" d="M72.334 0H63.665C60.2674 0 58 2.4326 58 5.916V14.084C58 17.5707 60.2614 20 63.665 20H72.333C75.7376 20 78 17.5707 78 14.084V5.916C78 2.42951 75.7378 0 72.334 0ZM63.665 1.5H72.334C74.8845 1.5 76.5 3.23497 76.5 5.916V14.084C76.5 16.7651 74.8844 18.5 72.333 18.5H63.665C61.1148 18.5 59.5 16.7653 59.5 14.084V5.916C59.5 3.23838 61.1203 1.5 63.665 1.5Z" fill="#33B57B"/>
<path d="M69.8906 6H71.7358V11.6676C71.7358 12.304 71.5838 12.8608 71.2798 13.3381C70.9787 13.8153 70.5568 14.1875 70.0142 14.4545C69.4716 14.7188 68.8395 14.8509 68.1179 14.8509C67.3935 14.8509 66.7599 14.7188 66.2173 14.4545C65.6747 14.1875 65.2528 13.8153 64.9517 13.3381C64.6506 12.8608 64.5 12.304 64.5 11.6676V6H66.3452V11.5099C66.3452 11.8423 66.4176 12.1378 66.5625 12.3963C66.7102 12.6548 66.9176 12.858 67.1847 13.0057C67.4517 13.1534 67.7628 13.2273 68.1179 13.2273C68.4759 13.2273 68.7869 13.1534 69.0511 13.0057C69.3182 12.858 69.5241 12.6548 69.669 12.3963C69.8168 12.1378 69.8906 11.8423 69.8906 11.5099V6Z" fill="#33B57B"/>
<rect x="88" y="1" width="38" height="18" rx="4" stroke="black" stroke-width="2"/>
<path d="M94.7585 14.5V5.77273H100.639V7.29403H96.6037V9.37358H100.337V10.8949H96.6037V12.9787H100.656V14.5H94.7585ZM110.286 8.82812H108.42C108.386 8.58665 108.316 8.37216 108.211 8.18466C108.106 7.99432 107.971 7.83239 107.806 7.69886C107.642 7.56534 107.451 7.46307 107.235 7.39205C107.022 7.32102 106.791 7.28551 106.541 7.28551C106.089 7.28551 105.696 7.39773 105.36 7.62216C105.025 7.84375 104.765 8.16761 104.58 8.59375C104.396 9.01705 104.304 9.53125 104.304 10.1364C104.304 10.7585 104.396 11.2812 104.58 11.7045C104.768 12.1278 105.029 12.4474 105.365 12.6634C105.7 12.8793 106.088 12.9872 106.528 12.9872C106.775 12.9872 107.004 12.9545 107.214 12.8892C107.427 12.8239 107.616 12.7287 107.781 12.6037C107.946 12.4759 108.082 12.321 108.19 12.1392C108.301 11.9574 108.377 11.75 108.42 11.517L110.286 11.5256C110.238 11.9261 110.117 12.3125 109.924 12.6847C109.734 13.054 109.477 13.3849 109.153 13.6776C108.832 13.9673 108.448 14.1974 108.002 14.3679C107.559 14.5355 107.058 14.6193 106.498 14.6193C105.72 14.6193 105.024 14.4432 104.41 14.0909C103.799 13.7386 103.316 13.2287 102.961 12.5611C102.609 11.8935 102.433 11.0852 102.433 10.1364C102.433 9.18466 102.612 8.375 102.97 7.70739C103.328 7.03977 103.813 6.53125 104.427 6.18182C105.041 5.82955 105.731 5.65341 106.498 5.65341C107.004 5.65341 107.473 5.72443 107.904 5.86648C108.339 6.00852 108.724 6.21591 109.059 6.48864C109.394 6.75852 109.667 7.08949 109.877 7.48153C110.09 7.87358 110.227 8.32244 110.286 8.82812ZM119.79 8.82812H117.923C117.889 8.58665 117.82 8.37216 117.715 8.18466C117.61 7.99432 117.475 7.83239 117.31 7.69886C117.145 7.56534 116.955 7.46307 116.739 7.39205C116.526 7.32102 116.294 7.28551 116.044 7.28551C115.592 7.28551 115.199 7.39773 114.864 7.62216C114.529 7.84375 114.269 8.16761 114.084 8.59375C113.899 9.01705 113.807 9.53125 113.807 10.1364C113.807 10.7585 113.899 11.2812 114.084 11.7045C114.271 12.1278 114.533 12.4474 114.868 12.6634C115.203 12.8793 115.591 12.9872 116.031 12.9872C116.279 12.9872 116.507 12.9545 116.717 12.8892C116.931 12.8239 117.119 12.7287 117.284 12.6037C117.449 12.4759 117.585 12.321 117.693 12.1392C117.804 11.9574 117.881 11.75 117.923 11.517L119.79 11.5256C119.742 11.9261 119.621 12.3125 119.428 12.6847C119.237 13.054 118.98 13.3849 118.656 13.6776C118.335 13.9673 117.952 14.1974 117.506 14.3679C117.063 14.5355 116.561 14.6193 116.002 14.6193C115.223 14.6193 114.527 14.4432 113.913 14.0909C113.303 13.7386 112.82 13.2287 112.465 12.5611C112.112 11.8935 111.936 11.0852 111.936 10.1364C111.936 9.18466 112.115 8.375 112.473 7.70739C112.831 7.03977 113.317 6.53125 113.931 6.18182C114.544 5.82955 115.235 5.65341 116.002 5.65341C116.507 5.65341 116.976 5.72443 117.408 5.86648C117.842 6.00852 118.227 6.21591 118.563 6.48864C118.898 6.75852 119.171 7.08949 119.381 7.48153C119.594 7.87358 119.73 8.32244 119.79 8.82812Z" fill="black"/>
</svg>
