<svg width="24" height="24" viewBox="0 0 24 24" fill="none" xmlns="http://www.w3.org/2000/svg">
<path d="M17.4732 2L16.5804 3.02679L18.2768 4.58929C18.3285 4.64102 18.3991 4.71028 18.4554 4.76786L18.0982 5.16964C17.5265 5.74138 17.9367 6.48133 18.1429 6.6875L19.2143 7.75893V16.2857C19.2143 17.7143 18.6541 17.7143 18.5 17.7143C18.3459 17.7143 17.7857 17.7143 17.7857 16.2857V10.5714C17.7857 8.74156 16.3571 7.71429 14.9286 7.71429V4.85714C14.9286 4.06957 14.3218 3.42857 13.5 3.42857H4.92857C4.07251 3.42857 3.5 4.03532 3.5 4.85714V22H14.9286V9.14286C14.9286 9.14286 16.3571 9.14286 16.3571 10.5714V16.2857C16.3571 19.1429 18.1281 19.1429 18.5 19.1429C18.8938 19.1429 20.6429 19.1429 20.6429 16.2857V6.28571C20.6429 4.85714 20.2343 4.55826 19.75 4.09821L17.4732 2ZM4.92857 6.28571H13.5V10.5714H4.92857V6.28571Z" fill="white"/>
</svg>
